<?xml version="1.0" encoding="UTF-8"?>
<svg id="Layer_1" xmlns="http://www.w3.org/2000/svg" version="1.1" viewBox="0 0 100 100">
  <!-- Generator: Adobe Illustrator 30.2.1, SVG Export Plug-In . SVG Version: 2.1.1 Build 1)  -->
  <defs>
    <style>
      .st0 {
        fill: #fff;
      }
    </style>
  </defs>
  <path class="st0" d="M98.92,49.19c-.03-.11-.06-.22-.12-.4-.03-.12-.07-.23-.09-.27-.04-.13-.11-.25-.21-.42l-.17-.31c-.14-.21-.31-.42-.51-.62L56.3,5.63c-1.46-1.46-3.76-1.55-5.33-.29l-.34.29c-.75.75-1.17,1.76-1.17,2.83s.42,2.07,1.17,2.83l34.71,34.71H5c-2.21,0-4,1.79-4,4s1.79,4,4,4h80.35l-34.71,34.71c-.75.75-1.17,1.76-1.17,2.83s.42,2.07,1.17,2.83,1.8,1.17,2.83,1.17,2.05-.39,2.83-1.17l41.54-41.54c.21-.21.37-.41.49-.59.06-.09.11-.18.17-.3l.07-.12c.06-.1.11-.2.15-.3s.07-.21.1-.31l.03-.11c.03-.1.06-.19.09-.31.05-.25.08-.52.08-.8s-.1-.8-.1-.8Z"/>
</svg>