<?xml version="1.0" encoding="UTF-8"?>
<svg id="Layer_1" xmlns="http://www.w3.org/2000/svg" version="1.1" viewBox="0 0 100 100">
  <!-- Generator: Adobe Illustrator 30.2.1, SVG Export Plug-In . SVG Version: 2.1.1 Build 1)  -->
  <defs>
    <style>
      .st0 {
        fill: #fff;
        stroke: #fff;
        stroke-miterlimit: 10;
        stroke-width: 2px;
      }
    </style>
  </defs>
  <path class="st0" d="M51.34,6.34c-1.17,1.17-1.17,3.07,0,4.24l36.42,36.42H5c-1.66,0-3,1.34-3,3s1.34,3,3,3h82.76l-36.42,36.42c-1.17,1.17-1.17,3.07,0,4.24s3.07,1.17,4.24,0l41.54-41.54c.14-.14.27-.29.38-.46.05-.07.08-.15.12-.22.05-.1.11-.19.15-.29.04-.1.06-.2.09-.3.03-.09.06-.17.08-.26.04-.19.06-.39.06-.59s-.02-.39-.06-.59c-.02-.09-.05-.18-.08-.27-.03-.1-.05-.2-.09-.29-.04-.11-.11-.21-.16-.31-.04-.07-.07-.14-.11-.21-.11-.17-.24-.32-.38-.46L55.59,6.34c-1.17-1.17-3.07-1.17-4.24,0h-.01Z"/>
</svg>