<?xml version="1.0" encoding="UTF-8"?>
<svg id="Layer_1" xmlns="http://www.w3.org/2000/svg" version="1.1" viewBox="0 0 100 100">
  <!-- Generator: Adobe Illustrator 30.2.1, SVG Export Plug-In . SVG Version: 2.1.1 Build 1)  -->
  <defs>
    <style>
      .st0 {
        fill: #aaa;
        stroke: #aaa;
        stroke-miterlimit: 10;
        stroke-width: 2px;
      }
    </style>
  </defs>
  <path class="st0" d="M93.66,51.34c-1.17-1.17-3.07-1.17-4.24,0l-36.42,36.42V5c0-1.66-1.34-3-3-3s-3,1.34-3,3v82.76L10.58,51.34c-1.17-1.17-3.07-1.17-4.24,0-1.17,1.17-1.17,3.07,0,4.24l41.54,41.54c.14.14.29.27.46.38.07.05.15.08.22.12.1.05.19.11.29.15.1.04.2.06.3.09.09.03.17.06.26.08.19.04.39.06.59.06s.39-.02.59-.06c.09-.02.18-.05.27-.08.1-.03.2-.05.29-.09.11-.04.21-.11.31-.16.07-.04.14-.07.21-.11.17-.11.32-.24.46-.38l41.53-41.53c1.17-1.17,1.17-3.07,0-4.24Z"/>
</svg>