<?xml version="1.0" encoding="UTF-8"?>
<svg id="Layer_1" xmlns="http://www.w3.org/2000/svg" version="1.1" viewBox="0 0 300 100">
  <!-- Generator: Adobe Illustrator 30.2.1, SVG Export Plug-In . SVG Version: 2.1.1 Build 1)  -->
  <defs>
    <style>
      .st0 {
        fill: #231f20;
      }
    </style>
  </defs>
  <rect class="st0" x="229.53" width="20.51" height="20.51"/>
  <path class="st0" d="M293.72,32.67c-4.19-4.42-10.23-6.63-18.14-6.63-6.61,0-12.16,1.56-16.67,4.67-3.69,2.55-6.63,5.81-8.86,9.75v-13.03h-20.51v17.96c-.67-5.12-2.63-9.42-5.93-12.87-4.14-4.33-10.07-6.49-17.79-6.49-6.51,0-12.07,1.56-16.67,4.67-3.55,2.4-6.41,5.43-8.61,9.08-1.03-2.78-2.62-5.28-4.79-7.47-4.14-4.19-9.93-6.28-17.37-6.28-6.23,0-11.56,1.56-15.98,4.67-3.39,2.39-6.15,5.42-8.3,9.04v-12.32h-20.93v38.23c0,3.44-.72,6.49-2.16,9.14-1.44,2.65-3.37,4.72-5.79,6.21-2.42,1.49-5.21,2.23-8.37,2.23-3.54,0-6.28-.98-8.23-2.93-1.95-1.95-2.93-4.88-2.93-8.79V27.44h-20.93v17.81c-.99-5.68-3.96-10.2-8.93-13.55-5.58-3.77-13.07-5.65-22.46-5.65s-16.88,1.93-22.19,5.79c-5.3,3.86-7.95,9.23-7.95,16.12,0,5.68,2,10.3,6,13.88,4,3.58,10.23,6.26,18.7,8.02l11.44,2.37c3.07.65,5.18,1.47,6.35,2.44,1.16.98,1.74,2.35,1.74,4.12,0,2.33-1,4.12-3,5.37-2,1.26-5.19,1.88-9.56,1.88-4.84,0-8.63-.81-11.37-2.44-2.75-1.63-4.35-4.02-4.81-7.19H0c.56,7.35,3.91,13.12,10.05,17.3,6.14,4.19,14.42,6.28,24.84,6.28s17.65-1.93,23.09-5.79c4.09-2.9,6.65-6.69,7.66-11.36.46,1.78,1.08,3.47,1.9,5.08,1.86,3.68,4.58,6.61,8.16,8.79,3.58,2.18,7.88,3.28,12.91,3.28,6.33,0,11.72-1.58,16.19-4.74,3.43-2.43,6.21-5.45,8.37-9.03v12.38h20.93v-39.35c0-3.35.7-6.25,2.09-8.72,1.4-2.46,3.32-4.37,5.79-5.72,2.46-1.35,5.18-2.02,8.16-2.02,3.44,0,6.12.86,8.02,2.58,1.9,1.72,2.86,4.4,2.86,8.02v45.21h20.93v-39.35c0-3.35.7-6.25,2.09-8.72,1.4-2.46,3.32-4.37,5.79-5.72,2.46-1.35,5.18-2.02,8.16-2.02,3.44,0,6.12.86,8.02,2.58,1.91,1.72,2.86,4.4,2.86,8.02v45.21h41.58v-38.23c0-3.53.72-6.6,2.16-9.21,1.44-2.6,3.44-4.65,6-6.14,2.56-1.49,5.46-2.23,8.72-2.23,3.81,0,6.72.98,8.72,2.93,2,1.95,3,4.88,3,8.79v44.09h20.93v-48.14c0-7.44-2.09-13.37-6.28-17.79ZM60.63,63.65c-3.68-4.05-9.09-6.81-16.26-8.3l-12.84-2.65c-3.44-.74-5.91-1.6-7.4-2.58-1.49-.98-2.23-2.3-2.23-3.98,0-1.95.91-3.47,2.72-4.53,1.81-1.07,4.58-1.61,8.3-1.61,4.09,0,7.26.63,9.49,1.88,2.23,1.26,3.53,3.09,3.91,5.51h18.42v22.83c-.92-2.37-2.29-4.56-4.12-6.57Z"/>
</svg>